<?xml version="1.0" encoding="UTF-8"?>
<!DOCTYPE svg PUBLIC "-//W3C//DTD SVG 1.1//EN" "http://www.w3.org/Graphics/SVG/1.1/DTD/svg11.dtd">
<svg xmlns="http://www.w3.org/2000/svg" version="1.1" width="488px" height="94px" style="shape-rendering:geometricPrecision; text-rendering:geometricPrecision; image-rendering:optimizeQuality; fill-rule:evenodd; clip-rule:evenodd" xmlns:xlink="http://www.w3.org/1999/xlink">
<g><path style="opacity:1" fill="#fbfbfb" d="M 96.5,1.5 C 96.5,5.5 96.5,9.5 96.5,13.5C 91.1667,13.5 85.8333,13.5 80.5,13.5C 80.5,9.5 80.5,5.5 80.5,1.5C 85.8333,1.5 91.1667,1.5 96.5,1.5 Z"/></g>
<g><path style="opacity:1" fill="#f7f7f7" d="M 147.5,1.5 C 152.833,1.5 158.167,1.5 163.5,1.5C 163.5,14.5 163.5,27.5 163.5,40.5C 165.134,41.1611 166.967,41.4944 169,41.5C 171.295,41.4535 173.129,40.7868 174.5,39.5C 176.249,33.5863 178.582,27.9197 181.5,22.5C 187.271,21.8872 192.604,22.5539 197.5,24.5C 194.837,32.154 192.171,39.8207 189.5,47.5C 192.541,56.1236 195.874,64.6236 199.5,73C 193.472,73.8303 187.472,73.6636 181.5,72.5C 178.819,66.474 176.152,60.474 173.5,54.5C 170.038,53.5184 166.371,53.185 162.5,53.5C 162.5,59.8333 162.5,66.1667 162.5,72.5C 157.5,72.5 152.5,72.5 147.5,72.5C 147.5,48.8333 147.5,25.1667 147.5,1.5 Z"/></g>
<g><path style="opacity:0.999" fill="#f9f9f9" d="M 263.5,1.5 C 266.833,1.5 270.167,1.5 273.5,1.5C 273.5,4.16667 273.5,6.83333 273.5,9.5C 270.167,9.5 266.833,9.5 263.5,9.5C 263.5,6.83333 263.5,4.16667 263.5,1.5 Z"/></g>
<g><path style="opacity:0.999" fill="#fdfdfd" d="M 343.5,1.5 C 346.898,1.17964 350.232,1.51298 353.5,2.5C 352.51,25.7881 352.177,49.1215 352.5,72.5C 349.5,72.5 346.5,72.5 343.5,72.5C 343.5,48.8333 343.5,25.1667 343.5,1.5 Z"/></g>
<g><path style="opacity:0.999" fill="#f5f5f5" d="M 374.5,1.5 C 374.5,4.16667 374.5,6.83333 374.5,9.5C 371.167,9.5 367.833,9.5 364.5,9.5C 364.5,6.83333 364.5,4.16667 364.5,1.5C 367.833,1.5 371.167,1.5 374.5,1.5 Z"/></g>
<g><path style="opacity:0.593" fill="#8b8b8b" d="M 454.5,2.5 C 451.833,2.5 449.167,2.5 446.5,2.5C 446.5,23.5 446.5,44.5 446.5,65.5C 445.503,44.3399 445.169,23.0065 445.5,1.5C 448.713,1.19 451.713,1.52333 454.5,2.5 Z"/></g>
<g><path style="opacity:0.999" fill="#f5f5f5" d="M 454.5,2.5 C 454.688,8.34635 454.688,14.3463 454.5,20.5C 460.463,21.4959 466.463,21.8293 472.5,21.5C 472.5,24.5 472.5,27.5 472.5,30.5C 466.463,30.1707 460.463,30.5041 454.5,31.5C 454.454,40.743 454.62,50.0763 455,59.5C 455.41,60.9007 455.91,62.234 456.5,63.5C 461.305,64.4872 466.305,64.8205 471.5,64.5C 471.5,67.1667 471.5,69.8333 471.5,72.5C 465.167,72.5 458.833,72.5 452.5,72.5C 448.71,71.7091 446.71,69.3758 446.5,65.5C 446.5,44.5 446.5,23.5 446.5,2.5C 449.167,2.5 451.833,2.5 454.5,2.5 Z"/></g>
<g><path style="opacity:0.273" fill="#3b3b3b" d="M 263.5,1.5 C 263.5,4.16667 263.5,6.83333 263.5,9.5C 266.833,9.5 270.167,9.5 273.5,9.5C 270.038,10.4816 266.371,10.815 262.5,10.5C 262.19,7.2869 262.523,4.2869 263.5,1.5 Z"/></g>
<g><path style="opacity:0.274" fill="#555555" d="M 374.5,1.5 C 375.477,4.2869 375.81,7.2869 375.5,10.5C 371.629,10.815 367.962,10.4816 364.5,9.5C 367.833,9.5 371.167,9.5 374.5,9.5C 374.5,6.83333 374.5,4.16667 374.5,1.5 Z"/></g>
<g><path style="opacity:0.579" fill="#8a8a8a" d="M 96.5,1.5 C 97.4849,5.63441 97.8182,9.96775 97.5,14.5C 91.642,14.8222 85.9753,14.4889 80.5,13.5C 85.8333,13.5 91.1667,13.5 96.5,13.5C 96.5,9.5 96.5,5.5 96.5,1.5 Z"/></g>
<g><path style="opacity:0.737" fill="#aeaeae" d="M 181.5,22.5 C 187.319,21.3475 193.319,21.1808 199.5,22C 198.934,22.9947 198.267,23.828 197.5,24.5C 192.604,22.5539 187.271,21.8872 181.5,22.5 Z"/></g>
<g><path style="opacity:0.421" fill="#5f5f5f" d="M -0.5,21.5 C -0.166667,21.5 0.166667,21.5 0.5,21.5C 0.5,38.5 0.5,55.5 0.5,72.5C 5.5,72.5 10.5,72.5 15.5,72.5C 15.1719,60.9877 15.5052,49.6544 16.5,38.5C 16.5,50.1667 16.5,61.8333 16.5,73.5C 10.8333,73.5 5.16667,73.5 -0.5,73.5C -0.5,56.1667 -0.5,38.8333 -0.5,21.5 Z"/></g>
<g><path style="opacity:1" fill="#f8f8f8" d="M 0.5,21.5 C 5.83333,21.5 11.1667,21.5 16.5,21.5C 16.3398,23.1992 16.5065,24.8659 17,26.5C 19.7117,22.0846 23.7117,20.4179 29,21.5C 35.0074,20.5065 39.6741,22.5065 43,27.5C 44.1667,25 46,23.1667 48.5,22C 53.8333,21.3333 59.1667,21.3333 64.5,22C 67.8172,23.4802 69.8172,25.9802 70.5,29.5C 70.5,43.8333 70.5,58.1667 70.5,72.5C 65.5,72.5 60.5,72.5 55.5,72.5C 55.8284,60.3217 55.4951,48.3217 54.5,36.5C 50.4512,34.718 46.9512,35.3847 44,38.5C 43.5001,50.1619 43.3335,61.8286 43.5,73.5C 38.1667,73.5 32.8333,73.5 27.5,73.5C 27.6665,61.1622 27.4999,48.8288 27,36.5C 24.2628,35.3895 21.4294,35.2228 18.5,36C 17.6195,36.7083 16.9528,37.5416 16.5,38.5C 15.5052,49.6544 15.1719,60.9877 15.5,72.5C 10.5,72.5 5.5,72.5 0.5,72.5C 0.5,55.5 0.5,38.5 0.5,21.5 Z"/></g>
<g><path style="opacity:0.789" fill="#c6c6c6" d="M 96.5,21.5 C 96.5,21.8333 96.5,22.1667 96.5,22.5C 91.5,22.5 86.5,22.5 81.5,22.5C 81.5,39.1667 81.5,55.8333 81.5,72.5C 81.1667,72.5 80.8333,72.5 80.5,72.5C 80.5,55.5 80.5,38.5 80.5,21.5C 85.8333,21.5 91.1667,21.5 96.5,21.5 Z"/></g>
<g><path style="opacity:0.999" fill="#fefefe" d="M 96.5,22.5 C 96.5,39.1667 96.5,55.8333 96.5,72.5C 91.5,72.5 86.5,72.5 81.5,72.5C 81.5,55.8333 81.5,39.1667 81.5,22.5C 86.5,22.5 91.5,22.5 96.5,22.5 Z"/></g>
<g><path style="opacity:0.584" fill="#909090" d="M 122.5,24.5 C 117.944,22.5583 112.944,21.8917 107.5,22.5C 107.5,39.1667 107.5,55.8333 107.5,72.5C 112.5,72.5 117.5,72.5 122.5,72.5C 117.36,73.4881 112.026,73.8214 106.5,73.5C 106.5,56.1667 106.5,38.8333 106.5,21.5C 112.167,21.5 117.833,21.5 123.5,21.5C 123.737,22.791 123.404,23.791 122.5,24.5 Z"/></g>
<g><path style="opacity:1" fill="#fdfdfd" d="M 122.5,24.5 C 122.369,25.3764 122.702,26.0431 123.5,26.5C 125.214,24.6496 127.214,23.3163 129.5,22.5C 133.167,22.5 136.833,22.5 140.5,22.5C 140.5,26.5 140.5,30.5 140.5,34.5C 135.637,34.1805 130.97,34.5139 126.5,35.5C 124.827,36.343 123.66,37.6763 123,39.5C 122.5,50.495 122.333,61.495 122.5,72.5C 117.5,72.5 112.5,72.5 107.5,72.5C 107.5,55.8333 107.5,39.1667 107.5,22.5C 112.944,21.8917 117.944,22.5583 122.5,24.5 Z"/></g>
<g><path style="opacity:0.71" fill="#9b9b9b" d="M 129.5,22.5 C 133.298,21.5166 137.298,21.1832 141.5,21.5C 141.5,26.1667 141.5,30.8333 141.5,35.5C 136.5,35.5 131.5,35.5 126.5,35.5C 130.97,34.5139 135.637,34.1805 140.5,34.5C 140.5,30.5 140.5,26.5 140.5,22.5C 136.833,22.5 133.167,22.5 129.5,22.5 Z"/></g>
<g><path style="opacity:1" fill="#f3f3f3" d="M 221.5,36.5 C 216.468,38.3699 211.135,39.0366 205.5,38.5C 205.5,35.1667 205.5,31.8333 205.5,28.5C 206.591,25.5722 208.591,23.4055 211.5,22C 222.833,21.3333 234.167,21.3333 245.5,22C 247.96,23.4578 250.127,25.2911 252,27.5C 252.175,42.741 252.675,57.9077 253.5,73C 247.5,73.6667 241.5,73.6667 235.5,73C 236.554,71.6124 236.72,70.1124 236,68.5C 234.269,70.6166 232.102,72.1166 229.5,73C 223.167,73.6667 216.833,73.6667 210.5,73C 207.34,72.0092 204.84,70.1759 203,67.5C 202.076,60.392 202.409,53.392 204,46.5C 206.194,43.8194 209.027,42.3194 212.5,42C 220.413,41.1859 228.246,41.3526 236,42.5C 236.687,40.4325 236.52,38.4325 235.5,36.5C 230.682,35.1876 226.015,35.1876 221.5,36.5 Z M 232.5,59.5 C 228.069,59.7693 223.735,59.436 219.5,58.5C 219.261,56.5328 219.594,54.6995 220.5,53C 225.864,52.1705 231.198,52.3372 236.5,53.5C 236.068,56.1812 234.734,58.1812 232.5,59.5 Z"/></g>
<g><path style="opacity:0.999" fill="#e2e2e2" d="M 266.5,93.5 C 260.167,93.5 253.833,93.5 247.5,93.5C 247.5,90.8333 247.5,88.1667 247.5,85.5C 252.032,85.8182 256.366,85.4849 260.5,84.5C 261.458,84.0472 262.292,83.3805 263,82.5C 263.5,62.1694 263.667,41.8361 263.5,21.5C 266.833,21.5 270.167,21.5 273.5,21.5C 273.667,42.1694 273.5,62.836 273,83.5C 272.627,88.0325 270.46,91.3658 266.5,93.5 Z"/></g>
<g><path style="opacity:0.62" fill="#9a9a9a" d="M 295.5,61.5 C 294.505,48.6774 294.171,35.6774 294.5,22.5C 291.833,22.5 289.167,22.5 286.5,22.5C 286.5,36.8333 286.5,51.1667 286.5,65.5C 285.504,51.0095 285.171,36.3428 285.5,21.5C 288.833,21.5 292.167,21.5 295.5,21.5C 295.5,34.8333 295.5,48.1667 295.5,61.5 Z"/></g>
<g><path style="opacity:1" fill="#f4f4f4" d="M 295.5,61.5 C 295.611,62.1174 295.944,62.6174 296.5,63C 302.833,63.6667 309.167,63.6667 315.5,63C 318.519,60.9726 320.352,58.1393 321,54.5C 321.5,43.8385 321.667,33.1719 321.5,22.5C 324.167,22.5 326.833,22.5 329.5,22.5C 329.5,39.1667 329.5,55.8333 329.5,72.5C 326.833,72.5 324.167,72.5 321.5,72.5C 321.662,70.4727 321.495,68.4727 321,66.5C 318.635,69.8691 315.468,72.0357 311.5,73C 305.5,73.6667 299.5,73.6667 293.5,73C 289.572,71.9078 287.239,69.4078 286.5,65.5C 286.5,51.1667 286.5,36.8333 286.5,22.5C 289.167,22.5 291.833,22.5 294.5,22.5C 294.171,35.6774 294.505,48.6774 295.5,61.5 Z"/></g>
<g><path style="opacity:0.701" fill="#acacac" d="M 321.5,22.5 C 324.287,21.5233 327.287,21.19 330.5,21.5C 330.5,38.8333 330.5,56.1667 330.5,73.5C 327.287,73.81 324.287,73.4767 321.5,72.5C 324.167,72.5 326.833,72.5 329.5,72.5C 329.5,55.8333 329.5,39.1667 329.5,22.5C 326.833,22.5 324.167,22.5 321.5,22.5 Z"/></g>
<g><path style="opacity:0.271" fill="#515151" d="M 365.5,21.5 C 365.5,21.8333 365.5,22.1667 365.5,22.5C 365.5,39.1667 365.5,55.8333 365.5,72.5C 368.167,72.5 370.833,72.5 373.5,72.5C 373.833,72.5 374.167,72.5 374.5,72.5C 371.375,73.4794 368.042,73.8128 364.5,73.5C 364.17,55.992 364.503,38.6586 365.5,21.5 Z"/></g>
<g><path style="opacity:0.999" fill="#fefefe" d="M 365.5,22.5 C 368.167,22.5 370.833,22.5 373.5,22.5C 373.5,39.1667 373.5,55.8333 373.5,72.5C 370.833,72.5 368.167,72.5 365.5,72.5C 365.5,55.8333 365.5,39.1667 365.5,22.5 Z"/></g>
<g><path style="opacity:0.718" fill="#b6b6b6" d="M 365.5,22.5 C 365.5,22.1667 365.5,21.8333 365.5,21.5C 368.5,21.5 371.5,21.5 374.5,21.5C 374.5,38.5 374.5,55.5 374.5,72.5C 374.167,72.5 373.833,72.5 373.5,72.5C 373.5,55.8333 373.5,39.1667 373.5,22.5C 370.833,22.5 368.167,22.5 365.5,22.5 Z"/></g>
<g><path style="opacity:0.999" fill="#f0f0f0" d="M 431.5,30.5 C 431.5,37.5 431.5,44.5 431.5,51.5C 419.833,51.5 408.167,51.5 396.5,51.5C 396.185,55.3714 396.518,59.0381 397.5,62.5C 405.343,63.8204 413.343,63.8204 421.5,62.5C 422.309,60.9291 422.643,59.2624 422.5,57.5C 425.5,57.5 428.5,57.5 431.5,57.5C 431.5,59.8333 431.5,62.1667 431.5,64.5C 431.21,68.9612 428.877,71.7945 424.5,73C 414.5,73.6667 404.5,73.6667 394.5,73C 391.417,72.214 389.251,70.3807 388,67.5C 387.333,54.1667 387.333,40.8333 388,27.5C 389.251,24.6193 391.417,22.786 394.5,22C 404.5,21.3333 414.5,21.3333 424.5,22C 428.602,23.3678 430.935,26.2011 431.5,30.5 Z M 400.5,30.5 C 407.047,30.2249 413.547,30.5582 420,31.5C 420.945,31.9054 421.612,32.572 422,33.5C 422.498,36.8168 422.665,40.1501 422.5,43.5C 414.167,43.5 405.833,43.5 397.5,43.5C 397.335,39.8183 397.501,36.1516 398,32.5C 398.995,31.9341 399.828,31.2674 400.5,30.5 Z"/></g>
<g><path style="opacity:0.284" fill="#525252" d="M 96.5,21.5 C 97.4967,38.6586 97.83,55.992 97.5,73.5C 91.642,73.8222 85.9753,73.4889 80.5,72.5C 80.8333,72.5 81.1667,72.5 81.5,72.5C 86.5,72.5 91.5,72.5 96.5,72.5C 96.5,55.8333 96.5,39.1667 96.5,22.5C 96.5,22.1667 96.5,21.8333 96.5,21.5 Z"/></g>
<g><path style="opacity:0.421" fill="#808080" d="M 70.5,29.5 C 71.496,43.9905 71.8293,58.6572 71.5,73.5C 65.8333,73.5 60.1667,73.5 54.5,73.5C 54.5,61.1667 54.5,48.8333 54.5,36.5C 55.4951,48.3217 55.8284,60.3217 55.5,72.5C 60.5,72.5 65.5,72.5 70.5,72.5C 70.5,58.1667 70.5,43.8333 70.5,29.5 Z"/></g>
<g><path style="opacity:0.711" fill="#a9a9a9" d="M 205.5,28.5 C 205.5,31.8333 205.5,35.1667 205.5,38.5C 211.135,39.0366 216.468,38.3699 221.5,36.5C 221.5,37.5 221.5,38.5 221.5,39.5C 215.833,39.5 210.167,39.5 204.5,39.5C 204.185,35.6286 204.518,31.9619 205.5,28.5 Z"/></g>
<g><path style="opacity:0.582" fill="#959595" d="M 174.5,39.5 C 173.129,40.7868 171.295,41.4535 169,41.5C 166.967,41.4944 165.134,41.1611 163.5,40.5C 167.269,40.756 170.936,40.4227 174.5,39.5 Z"/></g>
<g><path style="opacity:0.231" fill="#414141" d="M 431.5,30.5 C 432.492,37.6476 432.825,44.9809 432.5,52.5C 420.833,52.5 409.167,52.5 397.5,52.5C 397.5,55.8333 397.5,59.1667 397.5,62.5C 396.518,59.0381 396.185,55.3714 396.5,51.5C 408.167,51.5 419.833,51.5 431.5,51.5C 431.5,44.5 431.5,37.5 431.5,30.5 Z"/></g>
<g><path style="opacity:0.66" fill="#757575" d="M 147.5,1.5 C 147.5,25.1667 147.5,48.8333 147.5,72.5C 152.5,72.5 157.5,72.5 162.5,72.5C 162.5,66.1667 162.5,59.8333 162.5,53.5C 166.371,53.185 170.038,53.5184 173.5,54.5C 170.167,54.5 166.833,54.5 163.5,54.5C 163.5,60.8333 163.5,67.1667 163.5,73.5C 157.833,73.5 152.167,73.5 146.5,73.5C 146.169,49.3275 146.502,25.3275 147.5,1.5 Z"/></g>
<g><path style="opacity:0.047" fill="#232323" d="M 422.5,57.5 C 425.625,56.5206 428.958,56.1872 432.5,56.5C 432.806,59.3854 432.473,62.0521 431.5,64.5C 431.5,62.1667 431.5,59.8333 431.5,57.5C 428.5,57.5 425.5,57.5 422.5,57.5 Z"/></g>
<g><path style="opacity:0.498" fill="#868686" d="M 219.5,58.5 C 223.735,59.436 228.069,59.7693 232.5,59.5C 230.527,60.1627 228.361,60.4961 226,60.5C 223.39,60.4668 221.223,59.8001 219.5,58.5 Z"/></g>
<g><path style="opacity:0.047" fill="#363636" d="M 456.5,63.5 C 461.833,63.5 467.167,63.5 472.5,63.5C 472.5,66.8333 472.5,70.1667 472.5,73.5C 465.646,73.824 458.979,73.4907 452.5,72.5C 458.833,72.5 465.167,72.5 471.5,72.5C 471.5,69.8333 471.5,67.1667 471.5,64.5C 466.305,64.8205 461.305,64.4872 456.5,63.5 Z"/></g>
<g><path style="opacity:0.998" fill="#d32b20" d="M 487.5,62.5 C 487.5,66.1667 487.5,69.8333 487.5,73.5C 484.167,73.5 480.833,73.5 477.5,73.5C 476.325,69.85 476.325,66.1834 477.5,62.5C 480.833,62.5 484.167,62.5 487.5,62.5 Z"/></g>
<g><path style="opacity:0.467" fill="#4d4d4d" d="M 343.5,1.5 C 343.5,25.1667 343.5,48.8333 343.5,72.5C 346.5,72.5 349.5,72.5 352.5,72.5C 349.375,73.4794 346.042,73.8128 342.5,73.5C 342.169,49.3275 342.502,25.3275 343.5,1.5 Z"/></g>
<g><path style="opacity:0.429" fill="#7f7f7f" d="M 260.5,84.5 C 256.366,85.4849 252.032,85.8182 247.5,85.5C 247.5,88.1667 247.5,90.8333 247.5,93.5C 247.167,93.5 246.833,93.5 246.5,93.5C 246.5,90.5 246.5,87.5 246.5,84.5C 251.167,84.5 255.833,84.5 260.5,84.5 Z"/></g>
</svg>
